# xmcd
#
# Track frame offsets:
#	150
#	23740
#	43015
#	62530
#	79068
#	98608
#	116713
#	134705
#	154038
#	168328
#	188838
#
# Disc length: 2712 seconds
#
# Revision: 3
# Processed by: cddbd v1.5PL3 Copyright (c) Steve Scherf et al.
# Submitted via: dBpowerAMP V4.0
#
DISCID=890a960b
DTITLE=Pentangle,England - ThinkOfTomorrow;GreenLinnetGLCD3057
DYEAR=1991
DGENRE=Folk-Rock
TTITLE0=O'erTheLonelyMountain(1991,Pentangle,England)
TTITLE1=Baby,NowIt'sOver(1991,Pentangle,England)
TTITLE2=ShareADream(1991,Pentangle,England)
TTITLE3=Storyteller,The{Paddy'sSong}(1991,Pentangle,England)
TTITLE4=MeatOnTheBone(1991,Pentangle,England)
TTITLE5=EverYes,EverNo(1991,Pentangle,England)
TTITLE6=StraightAhead(1991,Pentangle,England)
TTITLE7=TossOfGoldenHair,The(1991,Pentangle,England)
TTITLE8=LarkInTheClearAir,The(1991,Pentangle,England)
TTITLE9=BonnyBoy,The(1991,Pentangle,England)
TTITLE10=ColourMyPaintbook(1991,Pentangle,England)
EXTD=corrected
EXTT0=
EXTT1=
EXTT2=
EXTT3=
EXTT4=
EXTT5=
EXTT6=
EXTT7=
EXTT8=
EXTT9=
EXTT10=
PLAYORDER=
